<svg xmlns="http://www.w3.org/2000/svg" xmlns:xlink="http://www.w3.org/1999/xlink" viewBox="0,0,256,256" width="256px" height="256px" fill-rule="nonzero"><defs><linearGradient x1="32.915" y1="0" x2="32.915" y2="29.688" gradientUnits="userSpaceOnUse" id="color-1"><stop offset="0" stop-color="#00ffff"></stop><stop offset="1" stop-color="#39ff14"></stop></linearGradient><linearGradient x1="32" y1="8" x2="32" y2="64" gradientUnits="userSpaceOnUse" id="color-2"><stop offset="0" stop-color="#ff44ff"></stop><stop offset="1" stop-color="#00ffff"></stop></linearGradient><linearGradient x1="32" y1="33" x2="32" y2="38" gradientUnits="userSpaceOnUse" id="color-3"><stop offset="0" stop-color="#00ffff"></stop><stop offset="1" stop-color="#39ff14"></stop></linearGradient></defs><g fill="none" fill-rule="nonzero" stroke="none" stroke-width="1" stroke-linecap="butt" stroke-linejoin="miter" stroke-miterlimit="10" stroke-dasharray="" stroke-dashoffset="0" font-family="none" font-weight="none" font-size="none" text-anchor="none" style="mix-blend-mode: normal"><g transform="scale(4,4)"><path d="M42.074,17.193l-3.207,12.447l-3.255,0.048l1.005,-1.293l-1.723,-2.633l0.957,-2.489l-2.011,1.197l-0.383,-2.107l1.867,-2.489l-2.824,1.867l0.096,-1.628l-1.915,1.628l0.383,-2.298l-2.059,2.394l0.766,0.718l-1.34,1.532h1.819l-4.25,4.913l-2.686,-3.142l1.436,-1.676l-1.92,-3.638l1.58,-2.633l0.718,1.293l1.675,-1.915l-0.287,-0.671l1.053,-2.489l-2.25,1.771l0.24,-5.553l3.686,-3.111l-1.341,4.452l3.256,-0.431l1.84,-6.257l3,-5l0.904,4.124l-1.723,3.112l0.67,1.244l2.968,-3.112l0.287,2.203l-1.771,1.962l0.862,0.431l1.053,-1.292l0.383,1.675l-0.814,1.245l1.101,1.34l2.107,-4.787l0.973,0.855l-0.064,1.587l-0.431,4.26l-2.393,1.006l-0.862,2.537z" fill="url(#color-1)"></path><path d="M53,35h-2.966c-1.346,3.572 -3.969,6.867 -7.034,9l0.488,-1.47c2.28,-2.091 3.913,-4.76 4.785,-7.676l-4.273,-0.854l4.862,-1.945c0.083,-0.679 0.138,-1.364 0.138,-2.055c0,-3.713 -1.21,-7.141 -3.238,-9.941l-3.762,0.941l2,-2l0.558,-0.418c-2.903,-3.19 -6.992,-5.267 -11.57,-5.531l-0.988,3.949l-0.987,-3.95c-4.564,0.264 -8.643,2.329 -11.545,5.503l2.532,3.447l-3.794,-1.897c-2.009,2.791 -3.206,6.203 -3.206,9.897c0,0.693 0.054,1.377 0.135,2.054l4.865,1.946l-4.293,0.859c0.809,2.73 2.297,5.227 4.392,7.28l-0.099,1.304c-2.855,-2.141 -5.024,-5.145 -6.147,-8.443h-2.853v-3h2.138c-0.09,-0.663 -0.138,-1.331 -0.138,-2c0,-3.958 1.219,-7.635 3.298,-10.681l-3.298,-1.319l2,-3l3.06,2.134c3.179,-3.442 7.601,-5.703 12.554,-6.063l-0.614,-3.071h4l-0.614,3.07c5.069,0.369 9.583,2.729 12.776,6.308l1.838,-1.378l2,2l-2.391,1.195c2.132,3.071 3.391,6.792 3.391,10.805c0,0.664 -0.055,1.333 -0.161,2h2.161zM32,25l-3,4l3,3l3,-3zM43,31v-6l-4.375,7h-6.625h-6.625l-4.375,-7v6l2.5,1l-1.5,3l2,4h3.25l0.5,2h-1.75v4h3v13h-1v4h2v2h4v-2h2v-4h-1v-13h3v-4h-1.75l0.5,-2h3.25l2,-4l-1.5,-3z" fill="url(#color-2)"></path><path d="M34,35.5l-2,2.5v0l-2,-2.5l2,-2.5v0z" fill="url(#color-3)"></path></g></g></svg>